HIERARCHY
ROOT Hips
{
    OFFSET 0.000000 0.000000 0.000000
    CHANNELS 6 Xposition Yposition Zposition Zrotation Xrotation Yrotation
    JOINT Spine
    {
        OFFSET -0.000000 8.129577 0.000000
        CHANNELS 3 Zrotation Xrotation Yrotation
        JOINT Spine1
        {
            OFFSET -0.000000 26.390701 0.000000
            CHANNELS 3 Zrotation Xrotation Yrotation
            JOINT Neck
            {
                OFFSET -0.000000 26.282320 2.389302
                CHANNELS 3 Zrotation Xrotation Yrotation
                JOINT Head
                {
                    OFFSET -0.000000 13.879765 -1.982823
                    CHANNELS 3 Zrotation Xrotation Yrotation
                    End Site
                    {
                        OFFSET -0.000000 24.785294 0.000000
                    }
                }
            }
            JOINT LeftShoulder
            {
                OFFSET 3.977886 23.574526 -0.273520
                CHANNELS 3 Zrotation Xrotation Yrotation
                JOINT LeftArm
                {
                    OFFSET 13.762619 0.000000 0.000000
                    CHANNELS 3 Zrotation Xrotation Yrotation
                    JOINT LeftForeArm
                    {
                        OFFSET 26.101372 0.000000 0.000000
                        CHANNELS 3 Zrotation Xrotation Yrotation
                        JOINT LeftHand
                        {
                            OFFSET 29.959852 0.000000 0.000000
                            CHANNELS 3 Zrotation Xrotation Yrotation
                            End Site
                            {
                                OFFSET 14.871177 0.000000 0.000000
                            }
                        }
                    }
                }
            }
            JOINT RightShoulder
            {
                OFFSET -3.951699 23.574526 -0.273520
                CHANNELS 3 Zrotation Xrotation Yrotation
                JOINT RightArm
                {
                    OFFSET -13.762619 0.000000 0.000000
                    CHANNELS 3 Zrotation Xrotation Yrotation
                    JOINT RightForeArm
                    {
                        OFFSET -26.101372 0.000000 0.000000
                        CHANNELS 3 Zrotation Xrotation Yrotation
                        JOINT RightHand
                        {
                            OFFSET -29.959852 0.000000 0.000000
                            CHANNELS 3 Zrotation Xrotation Yrotation
                            End Site
                            {
                                OFFSET -14.871177 0.000000 0.000000
                            }
                        }
                    }
                }
            }
        }
    }
    JOINT LeftUpLeg
    {
        OFFSET 9.914117 0.000000 0.000000
        CHANNELS 3 Zrotation Xrotation Yrotation
        JOINT LeftLeg
        {
            OFFSET -0.000000 -41.427933 0.000000
            CHANNELS 3 Zrotation Xrotation Yrotation
            JOINT LeftFoot
            {
                OFFSET -0.000000 -41.025417 0.000000
                CHANNELS 3 Zrotation Xrotation Yrotation
                JOINT LeftToeBase
                {
                    OFFSET -0.000000 -6.444176 14.871177
                    CHANNELS 3 Zrotation Xrotation Yrotation
                    End Site
                    {
                        OFFSET -0.000000 0.000000 3.965647
                    }
                }
            }
        }
    }
    JOINT RightUpLeg
    {
        OFFSET -9.914117 0.000000 0.000000
        CHANNELS 3 Zrotation Xrotation Yrotation
        JOINT RightLeg
        {
            OFFSET -0.000000 -41.427933 0.000000
            CHANNELS 3 Zrotation Xrotation Yrotation
            JOINT RightFoot
            {
                OFFSET -0.000000 -41.025417 0.000000
                CHANNELS 3 Zrotation Xrotation Yrotation
                JOINT RightToeBase
                {
                    OFFSET -0.000000 -6.444176 14.871177
                    CHANNELS 3 Zrotation Xrotation Yrotation
                    End Site
                    {
                        OFFSET -0.000000 0.000000 3.965647
                    }
                }
            }
        }
    }
}
MOTION
Frames:    14
Frame Time:    0.004000
-33.694736    82.891907    -203.235672    0.736514    -2.327341    4.709822    -0.280413    -0.309608    -1.893989    -1.287359    -1.808169    -1.913549    1.557367    13.700737    -4.226377    1.990657    -6.902050    -4.034507    10.853269    3.986522    0.231878    -15.762070    5.582979    1.174878    1.068402    0.631776    -1.384543    5.393791    0.824465    3.814929    -7.711735    0.763280    1.063379    13.228978    6.141035    -2.441106    -4.647399    0.658009    1.382302    -3.711161    0.693110    0.647153    2.165090    6.396585    -2.360894    0.652439    -4.182253    2.427875    -1.421385    -3.327450    8.379230    0.000000    0.000000    0.000000    -3.924232    7.830893    1.772810    0.673683    -3.949809    4.290128    0.971886    -5.854617    -18.593163    0.000000    0.000000    0.000000    
-33.691566    82.891235    -203.236008    0.743558    -2.314916    4.708169    -0.274590    -0.317187    -1.891379    -1.307168    -1.808636    -1.911238    1.560129    13.690725    -4.231075    2.005808    -6.898162    -4.036645    10.866272    3.972225    0.227066    -15.784931    5.633938    1.177295    1.087438    0.610817    -1.382830    5.404727    0.804382    3.820853    -7.703897    0.760497    1.055073    13.222786    6.123798    -2.433887    -4.638902    0.661754    1.383437    -3.705983    0.696762    0.649042    2.149885    6.383317    -2.361085    0.657642    -4.182397    2.458237    -1.421603    -3.323378    8.366054    0.000000    0.000000    0.000000    -3.938440    7.811228    1.703021    0.681414    -3.931884    4.373404    0.974583    -5.867153    -18.591770    0.000000    0.000000    0.000000    
-33.689754    82.890831    -203.234314    0.743848    -2.312044    4.717752    -0.269236    -0.317025    -1.896949    -1.313434    -1.813041    -1.916997    1.556969    13.687599    -4.229451    2.022154    -6.892640    -4.031729    10.861432    3.993277    0.224189    -15.771963    5.605669    1.168166    1.073376    0.612933    -1.375580    5.395550    0.805884    3.818691    -7.700818    0.760656    1.060138    13.208091    6.084623    -2.428464    -4.611536    0.666386    1.381247    -3.758173    0.701735    0.619902    2.149698    6.382705    -2.369534    0.654180    -4.183709    2.455706    -1.411288    -3.323822    8.365085    0.000000    0.000000    0.000000    -3.938040    7.808737    1.702456    0.678344    -3.925861    4.376989    0.968711    -5.870748    -18.600985    0.000000    0.000000    0.000000    
-33.689384    82.892181    -203.229767    0.747612    -2.322122    4.718731    -0.270110    -0.303554    -1.896144    -1.317923    -1.817058    -1.916361    1.588106    13.692498    -4.233677    1.980829    -6.911851    -4.044794    10.861393    3.980048    0.221056    -15.765610    5.578724    1.165230    1.060959    0.640084    -1.368696    5.398628    0.833146    3.824338    -7.697086    0.753081    1.064453    13.219729    6.118933    -2.439508    -4.631426    0.642413    1.382204    -3.721338    0.678425    0.615564    2.145700    6.388611    -2.366335    0.657206    -4.171088    2.450454    -1.414484    -3.328389    8.363241    0.000000    0.000000    0.000000    -3.939989    7.827100    1.700610    0.682132    -3.937495    4.381744    0.950371    -5.866702    -18.626146    0.000000    0.000000    0.000000    
-33.688335    82.891701    -203.228134    0.751035    -2.312525    4.721039    -0.267715    -0.307166    -1.896689    -1.326261    -1.825509    -1.917130    1.578858    13.684824    -4.229090    2.007849    -6.893731    -4.034787    10.872808    3.989636    0.209603    -15.784355    5.588086    1.166846    1.070618    0.636071    -1.359387    5.383481    0.828265    3.817324    -7.697019    0.754274    1.064683    13.210350    6.075618    -2.433881    -4.614193    0.656081    1.380654    -3.710883    0.692087    0.603669    2.138379    6.383453    -2.347490    0.660585    -4.177066    2.431821    -1.409318    -3.323818    8.359729    0.000000    0.000000    0.000000    -3.941740    7.820024    1.716264    0.674445    -3.939784    4.334167    0.972032    -5.873148    -18.592686    0.000000    0.000000    0.000000    
-33.686222    82.891624    -203.228470    0.752324    -2.306927    4.726991    -0.258794    -0.305241    -1.897565    -1.342711    -1.833546    -1.918351    1.594977    13.671988    -4.231733    1.997762    -6.877169    -4.040427    10.878474    3.991516    0.204834    -15.773974    5.536364    1.158402    1.052350    0.669316    -1.350256    5.387135    0.860934    3.808237    -7.684509    0.752839    1.060048    13.199298    6.061870    -2.430272    -4.602764    0.651336    1.378549    -3.715687    0.686912    0.611051    2.137048    6.373938    -2.355697    0.660749    -4.172660    2.443018    -1.408522    -3.321647    8.346806    0.000000    0.000000    0.000000    -3.946463    7.814137    1.698998    0.679544    -3.935620    4.372094    0.972228    -5.875301    -18.616468    0.000000    0.000000    0.000000    
-33.687431    82.890106    -203.225754    0.748686    -2.310815    4.734256    -0.255399    -0.295167    -1.903382    -1.336702    -1.840700    -1.924176    1.595556    13.668426    -4.225553    1.989892    -6.883973    -4.035522    10.868312    3.983227    0.201156    -15.774557    5.558545    1.167907    1.054203    0.672330    -1.346905    5.391396    0.864217    3.808668    -7.689882    0.755162    1.066271    13.198076    6.065073    -2.428984    -4.599522    0.648442    1.374018    -3.696385    0.684245    0.598723    2.144076    6.379745    -2.345791    0.655146    -4.175989    2.421247    -1.389970    -3.325188    8.357114    0.000000    0.000000    0.000000    -3.938214    7.825335    1.702740    0.676488    -3.946068    4.354078    0.956740    -5.870623    -18.614986    0.000000    0.000000    0.000000    
-33.684780    82.891968    -203.222610    0.753290    -2.308631    4.736921    -0.253593    -0.297303    -1.903381    -1.344226    -1.838858    -1.924278    1.604848    13.667980    -4.227036    1.989641    -6.892954    -4.037220    10.869794    3.983202    0.199768    -15.768679    5.538915    1.156852    1.044556    0.681847    -1.335168    5.368957    0.872869    3.811292    -7.689426    0.754401    1.063415    13.188257    6.063079    -2.422902    -4.580312    0.652981    1.364994    -3.709927    0.687891    0.607661    2.135044    6.379327    -2.341676    0.656139    -4.174887    2.436924    -1.413148    -3.320610    8.352865    0.000000    0.000000    0.000000    -3.944879    7.824275    1.701224    0.675336    -3.940616    4.362439    0.957581    -5.872638    -18.616041    0.000000    0.000000    0.000000    
-33.683498    82.891335    -203.220673    0.754877    -2.306451    4.740678    -0.252156    -0.290892    -1.907065    -1.343257    -1.853054    -1.928148    1.597144    13.672588    -4.229422    1.995899    -6.898694    -4.038081    10.863114    3.982489    0.185768    -15.775787    5.542795    1.176169    1.054200    0.687474    -1.336978    5.350084    0.878745    3.828904    -7.694718    0.762746    1.075038    13.184581    6.032376    -2.425652    -4.568411    0.666362    1.361274    -3.675594    0.700862    0.616761    2.131962    6.375300    -2.333589    0.662653    -4.171291    2.408801    -1.419722    -3.328323    8.352264    0.000000    0.000000    0.000000    -3.948626    7.822657    1.707714    0.679336    -3.937466    4.362604    0.961433    -5.879190    -18.633049    0.000000    0.000000    0.000000    
-33.681454    82.892082    -203.217834    0.758582    -2.305901    4.743129    -0.249875    -0.290139    -1.908752    -1.350693    -1.850153    -1.929932    1.610839    13.652764    -4.224335    1.987672    -6.876847    -4.035420    10.864779    3.976153    0.185932    -15.769787    5.517369    1.171517    1.025697    0.689704    -1.359065    5.495092    0.888938    3.896687    -7.689614    0.753648    1.071307    13.184927    6.062635    -2.421221    -4.573434    0.661580    1.360211    -3.687147    0.696906    0.590880    2.126248    6.376037    -2.330076    0.661169    -4.167476    2.413801    -1.417067    -3.330811    8.355119    0.000000    0.000000    0.000000    -3.953504    7.828218    1.709584    0.678071    -3.942837    4.352965    0.942497    -5.867208    -18.617405    0.000000    0.000000    0.000000    
-33.679909    82.892075    -203.215652    0.758291    -2.306321    4.744643    -0.247591    -0.280134    -1.910032    -1.348258    -1.866038    -1.931380    1.614385    13.657728    -4.224622    1.980254    -6.882895    -4.037156    10.856587    3.984773    0.176652    -15.760415    5.494479    1.178650    1.012771    0.698585    -1.359199    5.504928    0.897856    3.893615    -7.700604    0.758383    1.082362    13.194538    6.072399    -2.431860    -4.572716    0.665881    1.358490    -3.685380    0.700966    0.596352    2.126081    6.382784    -2.313365    0.661039    -4.178276    2.380307    -1.409830    -3.321415    8.362322    0.000000    0.000000    0.000000    -3.953628    7.828987    1.702395    0.679922    -3.936885    4.364521    0.974664    -5.888611    -18.637819    0.000000    0.000000    0.000000    
-33.680183    82.892128    -203.214951    0.757637    -2.297894    4.748970    -0.245228    -0.286260    -1.910475    -1.354500    -1.862316    -1.931905    1.629198    13.648608    -4.226245    1.977488    -6.895585    -4.039670    10.864260    3.970936    0.171024    -15.768114    5.498684    1.182441    1.017106    0.696188    -1.359476    5.498580    0.895577    3.901000    -7.690576    0.760101    1.072712    13.187462    6.094208    -2.423130    -4.575050    0.658701    1.354649    -3.656683    0.693824    0.592820    2.128472    6.374036    -2.317333    0.655839    -4.177577    2.423030    -1.403932    -3.321178    8.321978    0.000000    0.000000    0.000000    -3.949888    7.821969    1.702121    0.673608    -3.940582    4.357179    0.970165    -5.880055    -18.625732    0.000000    0.000000    0.000000    
-33.676422    82.891571    -203.212051    0.764232    -2.299105    4.750858    -0.243644    -0.280223    -1.913097    -1.359488    -1.866906    -1.934656    1.631977    13.662582    -4.226587    1.971903    -6.938865    -4.040286    10.856470    3.977686    0.169420    -15.747931    5.417564    1.182759    0.989408    0.736402    -1.354280    5.503057    0.934862    3.884719    -7.699518    0.761810    1.079794    13.199013    6.119954    -2.427722    -4.585662    0.669094    1.350367    -3.611032    0.704055    0.605045    2.120041    6.378075    -2.321493    0.653066    -4.175220    2.410557    -1.417611    -3.326278    8.349092    0.000000    0.000000    0.000000    -3.964239    7.826017    1.717407    0.683676    -3.936785    4.348691    0.946471    -5.890203    -18.635592    0.000000    0.000000    0.000000    
-33.674557    82.891373    -203.210037    0.765343    -2.296682    4.753235    -0.236872    -0.276656    -1.915553    -1.371001    -1.872242    -1.937364    1.629532    13.624984    -4.218146    1.996510    -6.873089    -4.028206    10.865067    3.981273    0.170907    -15.750502    5.405899    1.178049    0.985567    0.740029    -1.347740    5.499329    0.938026    3.880221    -7.700750    0.766131    1.082275    13.202493    6.108379    -2.425169    -4.582709    0.685264    1.346896    -3.608047    0.720217    0.603174    2.115654    6.379817    -2.315005    0.661856    -4.184339    2.408700    -1.412338    -3.317760    8.325479    0.000000    0.000000    0.000000    -3.962188    7.823520    1.703720    0.676094    -3.935074    4.366975    0.955271    -5.895967    -18.638624    0.000000    0.000000    0.000000    
